<?xml version="1.0" encoding="UTF-8"?>
<svg xmlns="http://www.w3.org/2000/svg" version="1.1" viewBox="0 0 1024 1024">
  <defs>
    <style>
      .cls-1 {
        fill: #203843;
      }

      .cls-2 {
        fill: #ddd8cc;
      }

      .cls-3 {
        stroke: #7c2d26;
        stroke-miterlimit: 10;
      }

      .cls-3, .cls-4 {
        fill: #7c2d26;
      }

      .cls-5 {
        fill: none;
      }
    </style>
  </defs>
  <!-- Generator: Adobe Illustrator 28.7.1, SVG Export Plug-In . SVG Version: 1.2.0 Build 142)  -->
  <g>
    <g id="Calque_1">
      <path class="cls-2" d="M617.15,462.81c-6.47,7.36-5.82,14.68,1.37,20.61-8.69,11.89-24.9,21.3-40.71.57-2.51,9.63,3.14,20.64,13.36,26.04,16.23,8.57,37.8,2.58,48.2-13.39,2.98,2.77,3.08,5.33-.43,8.97-2.78,2.87-4.79,5.41-3.87,9.91.4,1.97-1.06,5.22-2.74,6.56-4.95,3.95-3.44,8.81-1.97,13.06,4.9,14.06-1.59,24.46-16.66,23.62-13.01-.73-26.09-2.95-38.79-5.96-19.68-4.66-38.27-12.23-54.2-25.24-11.07-9.04-15.81-15.58-20.97-29.08-22.06,1.87-46.31-24.13-49.2-42.42-1.49-9.44-.75-18.23,7.59-24.21,8.54-6.12,17.78-5.8,26.75-.63,7.59,4.38,12.8,11.15,16.81,18.71,1.65,3.11,3.58,4.49,6.86,4.49,5.63,0,11.26,0,17.8,0-.62-6.49-1.36-13.18-1.82-19.89-.12-1.78,0-4.33,1.09-5.32,13.95-12.54,19.36-29.09,22.14-46.8.66-4.19,2.32-5.42,6.41-5.58,18.78-.71,37.55-1.71,56.32-2.7,4.01-.21,6.54,1.44,8.42,4.89,5.35,9.81,10.65,19.4,8.52,31.49-.52,2.96,2.47,7.03,4.74,9.89,9.2,11.6,18.8,22.89,28.13,34.38,1.65,2.04,3.01,4.42,4.03,6.84,2.65,6.31-.32,10.8-7.1,10.4-4.1-.24-8.14-1.9-12.23-2.02-5.22-.15-10.67-.13-15.67,1.16-9.51,2.45-11.25,1.69-12.17-8.35ZM601.61,425.87c.22,3.04-.2,5.63.71,7.6.94,2.04,3.18,3.5,4.85,5.21,1.45-1.48,3.56-2.73,4.19-4.5.97-2.73,1.62-5.94,1.16-8.73-.59-3.55-.12-5.99,2.17-8.98,7-9.11,3.24-18.61-7.43-19.82-10.79-1.22-27.91,7.94-33.12,17.88,10.31-2.22,19.99-7.14,31.14-5.56-5.45,7.88-15.76,9.13-22.28,15.87,6.18,4.05,12.21,3.81,18.61,1.04ZM487.64,468.04c-2.85-4.69-5.36-8.71-2.83-14.16,3.06-6.6.3-13.21-5.79-16.49-5.96-3.2-11.97-1.7-16.75,4.36,2.47,1.06,4.83,2.22,7.29,3.11,4.47,1.62,8.24,3.38,5.59,9.38-.67,1.53-.3,3.64-.05,5.43.86,6,5.72,9.56,12.55,8.37Z"/>
      <path class="cls-2" d="M481.17,315.03c9.98-4.44,18.89-8.08,27.51-12.32,11.97-5.89,21.07-14.49,24.02-28.19.14-.63.13-1.29.25-2.46-4.41,3.06-8.4,5.91-12.49,8.64-11.17,7.45-23.54,10.96-36.88,9.93-18.4-1.41-36.14,1.06-53.37,7.56-.73.28-1.47.52-2.74-.2,4.17-2.35,8.23-4.91,12.51-7.02,28.12-13.79,57.8-23.46,87.69-32.44,16.12-4.84,24.34-1.12,33.46,12.88,9.99,15.33,19.91,30.7,29.85,46.07.34.53.56,1.13,1.05,2.12-11.33,2.35-22.42,4.25-33.29,7.01-20.74,5.26-41.41,10.86-62,16.7-4.24,1.2-5.92.34-7.18-3.66-2.58-8.19-5.51-16.27-8.38-24.62Z"/>
      <path class="cls-2" d="M348.87,441.25c1.75-2.17,3.12-4.88,5.32-6.42,10.89-7.61,21.61-15.57,33.09-22.2,25.18-14.54,50.64-28.63,76.24-42.41,38.93-20.96,80.54-34.13,123.89-42.42,7.67-1.47,12.34-.43,15.92,6.46,4.15,8,9.99,10.62,19.74,9.24,12.71-1.8,25.85-.67,38.8-.5,2.9.04,5.91,1.02,8.64,2.13,12.38,5.02,14.28,17.64,3.36,27.11.13-2.48.21-4.32.33-6.16.52-7.6-1.84-12.02-9.32-12.81-13.02-1.36-26.31-2.91-39.25-1.77-71.11,6.29-139.8,23.3-205.64,50.76-20.74,8.65-40.05,20.76-59.88,31.55-3.81,2.07-6.95,5.37-10.39,8.1-.28-.22-.57-.43-.85-.65Z"/>
      <path class="cls-4" d="M558.9,624.41c-4.46,12-8.89,23.92-13.69,36.84-38.44-32.13-76.42-63.87-115.02-96.13,1.19-2.19,3.04-5.62,4.99-9.22,41.39,22.92,82.47,45.67,123.72,68.51Z"/>
      <path class="cls-2" d="M482.17,515.3c9.73,12.87,18.28,25.18,27.87,36.62,12.37,14.77,26.44,27.73,45.11,34.38,4.97,1.77,10.14,2.95,16.03,4.62.55,4.83,1.39,10.22,1.69,15.64.22,3.84-6.72,7.43-10.37,5.48-14.05-7.54-28.12-15.04-42.05-22.79-15.24-8.47-30.29-17.3-45.55-25.74-3.54-1.95-4.62-4.07-3.54-7.95,3.67-13.19,7.13-26.44,10.82-40.26Z"/>
      <path class="cls-4" d="M580.51,659.9c-1.98-10.03-3.3-18.91-5.57-27.54-1.62-6.19.79-9.63,6.43-12.58,2.23,7.29,4.97,14.41,6.38,21.78.57,2.97-1.6,6.57-2.85,9.75-1.01,2.57-2.5,4.95-4.39,8.58Z"/>
      <path class="cls-4" d="M482.31,415.01c11.96-6.19,23.91-12.38,36.5-18.89-.2,5.41-2.07,8.47-5.41,11.79-8.93,8.89-20.49,5.65-30.67,8.47-.14-.46-.28-.91-.42-1.37Z"/>
      <path class="cls-5" d="M633.98,746.04c5.56,0,10.43-.53,15.14.12,8.45,1.15,14.21,6.18,16.98,14.26,4.21,12.29,4.39,24.82.88,37.24-2.68,9.47-9.35,14.17-19.15,14.43-3.49.09-7.02.26-10.47-.15-1.23-.15-3.23-1.9-3.24-2.93-.19-20.77-.14-41.54-.14-62.95Z"/>
      <path class="cls-5" d="M497.14,782.2c-1.43,6.42-2.02,13.18-4.45,19.19-5.79,14.29-23.89,16.27-33.15,3.89-7.42-9.92-8.43-21.53-7.07-33.28.66-5.66,2.17-11.51,4.66-16.61,6.76-13.79,24.4-14.29,32.58-1.15,5.26,8.46,6.61,17.96,7.43,27.96Z"/>
      <path class="cls-5" d="M608.07,879.06c0-10.93-.1-21.23.13-31.52.03-1.27,1.7-3.35,2.93-3.61,10.39-2.26,17.62,2.86,18.77,13.15.31,2.8.3,5.68,0,8.48-.97,9.35-5.66,13.43-15.18,13.5-1.99.01-3.97,0-6.65,0Z"/>
      <path class="cls-5" d="M426.72,885.91h-23.71c3.7-10.55,7.28-20.77,11.29-32.21,4.39,11.39,8.3,21.51,12.42,32.21Z"/>
      <path class="cls-1" d="M522.06,227.02c138.06.8,241.58,108.9,239.82,240.64-1.76,131.48-107.02,234.5-238.16,235.04-131.7.54-238.94-105.46-239.43-237.1-.49-132.84,105.59-238.65,237.77-238.57ZM617.15,462.81c.92,10.04,2.66,10.8,12.17,8.35,5-1.29,10.45-1.31,15.67-1.16,4.09.11,8.13,1.78,12.23,2.02,6.78.39,9.75-4.09,7.1-10.4-1.02-2.42-2.38-4.81-4.03-6.84-9.33-11.5-18.93-22.78-28.13-34.38-2.27-2.86-5.26-6.93-4.74-9.89,2.13-12.09-3.17-21.67-8.52-31.49-1.88-3.44-4.41-5.1-8.42-4.89-18.77,1-37.54,1.99-56.32,2.7-4.09.15-5.76,1.39-6.41,5.58-2.77,17.72-8.19,34.26-22.14,46.8-1.1.99-1.21,3.54-1.09,5.32.46,6.71,1.2,13.39,1.82,19.89-6.54,0-12.17,0-17.8,0-3.27,0-5.21-1.38-6.86-4.49-4.01-7.56-9.22-14.33-16.81-18.71-8.97-5.17-18.21-5.49-26.75.63-8.35,5.98-9.08,14.77-7.59,24.21,2.89,18.29,27.14,44.28,49.2,42.42,5.16,13.5,9.91,20.03,20.97,29.08,15.93,13.01,34.52,20.58,54.2,25.24,12.71,3.01,25.78,5.23,38.79,5.96,15.07.84,21.55-9.56,16.66-23.62-1.48-4.24-2.98-9.11,1.97-13.06,1.68-1.34,3.14-4.59,2.74-6.56-.92-4.5,1.09-7.04,3.87-9.91,3.52-3.64,3.41-6.2.43-8.97-10.4,15.97-31.96,21.96-48.2,13.39-10.22-5.4-15.87-16.41-13.36-26.04,15.81,20.72,32.01,11.31,40.71-.57-7.19-5.93-7.84-13.25-1.37-20.61ZM481.17,315.03c2.87,8.36,5.81,16.43,8.38,24.62,1.26,4,2.93,4.86,7.18,3.66,20.59-5.83,41.25-11.43,62-16.7,10.87-2.76,21.96-4.65,33.29-7.01-.48-.99-.71-1.6-1.05-2.12-9.94-15.36-19.86-30.74-29.85-46.07-9.12-13.99-17.35-17.72-33.46-12.88-29.88,8.97-59.57,18.65-87.69,32.44-4.29,2.1-8.35,4.67-12.51,7.02,1.26.73,2.01.48,2.74.2,17.23-6.5,34.97-8.97,53.37-7.56,13.34,1.02,25.71-2.48,36.88-9.93,4.08-2.72,8.08-5.58,12.49-8.64-.11,1.16-.11,1.82-.25,2.46-2.94,13.7-12.05,22.3-24.02,28.19-8.61,4.24-17.53,7.88-27.51,12.32ZM348.87,441.25c.28.22.57.43.85.65,3.45-2.73,6.59-6.02,10.39-8.1,19.82-10.79,39.14-22.9,59.88-31.55,65.84-27.46,134.52-44.47,205.64-50.76,12.94-1.14,26.23.4,39.25,1.77,7.48.78,9.84,5.21,9.32,12.81-.13,1.84-.2,3.68-.33,6.16,10.92-9.47,9.01-22.09-3.36-27.11-2.73-1.11-5.74-2.09-8.64-2.13-12.95-.17-26.09-1.3-38.8.5-9.75,1.38-15.59-1.24-19.74-9.24-3.57-6.88-8.25-7.93-15.92-6.46-43.35,8.29-84.96,21.46-123.89,42.42-25.61,13.79-51.06,27.87-76.24,42.41-11.48,6.63-22.21,14.58-33.09,22.2-2.19,1.53-3.57,4.25-5.32,6.42ZM558.9,624.41c-41.25-22.84-82.33-45.59-123.72-68.51-1.95,3.61-3.81,7.03-4.99,9.22,38.6,32.26,76.58,64,115.02,96.13,4.8-12.92,9.24-24.84,13.69-36.84ZM482.17,515.3c-3.7,13.82-7.15,27.07-10.82,40.26-1.08,3.88,0,5.99,3.54,7.95,15.26,8.43,30.31,17.27,45.55,25.74,13.93,7.75,28,15.25,42.05,22.79,3.65,1.96,10.58-1.63,10.37-5.48-.3-5.42-1.14-10.81-1.69-15.64-5.88-1.68-11.06-2.85-16.03-4.62-18.66-6.65-32.73-19.61-45.11-34.38-9.58-11.44-18.14-23.74-27.87-36.62ZM580.51,659.9c1.89-3.63,3.38-6.01,4.39-8.58,1.25-3.18,3.42-6.78,2.85-9.75-1.41-7.37-4.15-14.49-6.38-21.78-5.64,2.95-8.05,6.39-6.43,12.58,2.26,8.63,3.59,17.51,5.57,27.54ZM482.31,415.01c.14.46.28.91.42,1.37,10.18-2.82,21.74.42,30.67-8.47,3.34-3.32,5.21-6.38,5.41-11.79-12.59,6.52-24.55,12.71-36.5,18.89Z"/>
      <path class="cls-3" d="M521.57,893.55c7.43-16.52,14.75-32.32,21.6-48.34,2.03-4.75,4.35-7.23,9.81-6.49,3.76.51,7.65-.04,11.48.13,1.12.05,2.21.95,3.31,1.47-.85.86-1.56,2.19-2.57,2.49-3.56,1.06-5.31,3.22-5.15,6.92.75,17.46,1.48,34.93,2.26,52.39.2,4.45,1.39,8.15,6.73,8.96.93.14,1.62,1.91,3.21,3.92-11.87,0-22.18.04-32.48-.07-.86,0-1.71-1.04-2.56-1.59.71-.78,1.31-2.07,2.14-2.24,5.94-1.22,6.91-5.35,6.72-10.49-.55-14.89-.97-29.78-1.48-45.97-5.47,12.01-10.48,22.91-15.41,33.85-3.55,7.87-6.97,15.79-10.56,23.64-.56,1.23-1.73,2.19-2.61,3.28-1.02-1.15-2.38-2.14-2.99-3.47-8.32-18.1-16.53-36.25-24.77-54.38-.3-.65-.64-1.29-1.83-1.76-.57,16.05-1.16,32.09-1.7,48.14-.12,3.6,1.61,5.88,5.1,7.06,1.13.38,1.95,1.65,2.92,2.52-1.1.5-2.19,1.39-3.31,1.42-5.99.15-11.99.13-17.99.02-.99-.02-1.96-.79-2.93-1.21.72-.92,1.28-2.41,2.19-2.67,4.72-1.37,6.58-4.59,6.88-9.22,1.14-17.6,2.33-35.19,3.55-52.78.24-3.45-1.48-5.13-4.57-6.12-1.39-.44-2.57-1.55-3.84-2.36.19-.57.37-1.14.56-1.71,7.23,0,14.46-.14,21.67.15,1.06.04,2.37,1.97,2.99,3.3,7,15.05,13.89,30.16,20.81,45.25.82,1.79,1.7,3.55,2.86,5.98Z"/>
      <path class="cls-3" d="M573.94,782.35c4.6,7.46,8.7,14.89,13.6,21.75,2.62,3.67,6.63,6.34,9.96,9.52.85.81,1.49,1.84,2.23,2.77-1.11.5-2.19,1.38-3.32,1.44-3.82.2-7.66.24-11.48.08-6.74-.28-10.98-4.44-13.99-9.89-2.97-5.37-5.5-10.98-8.21-16.5q-3.64-7.42-12.54-6.54c0,7.69-.13,15.46.06,23.21.09,3.61,3.2,4.11,5.99,4.93.99.29,1.68,1.61,2.51,2.46-.96.48-1.91,1.37-2.88,1.38-9.8.1-19.6.06-30.95.06,1.5-2.04,2.07-3.71,3.05-4.01,4.28-1.27,5.75-4.35,5.77-8.29.09-16.65.08-33.3.05-49.95,0-4.86-1.24-8.9-7.04-9.73-.83-.12-1.51-1.36-2.25-2.08.77-.66,1.55-1.89,2.31-1.88,14.95.24,30.03-.46,44.81,1.31,13.86,1.66,20.76,14.13,16.23,27.02-1.3,3.71-4.94,6.72-7.87,9.68-1.43,1.44-3.71,2.04-6.03,3.24ZM550.33,779.08c9.92,1.72,16.4-.33,19.71-6.1,3.57-6.23,2.66-17.53-1.83-22.66-3.84-4.4-11.64-5.93-17.88-3.46v32.22Z"/>
      <path class="cls-3" d="M608.46,815.59c1.1-.93,2.07-2.31,3.34-2.72,4-1.27,5.35-3.94,5.33-7.92-.09-16.83-.04-33.66-.09-50.49-.01-4.11-1.1-7.5-5.75-8.78-1.01-.28-1.63-2.02-2.42-3.09.71-.52,1.42-1.5,2.12-1.49,15.15.07,30.45-1.03,45.42.69,24.11,2.77,32.57,23.22,30.22,42.32-2.58,21.02-15.8,32.58-37.02,32.89-13.45.19-26.91.04-40.36.04-.26-.48-.52-.96-.78-1.45ZM633.98,746.04c0,21.41-.05,42.18.14,62.95,0,1.03,2.01,2.78,3.24,2.93,3.45.41,6.97.24,10.47.15,9.8-.26,16.47-4.95,19.15-14.43,3.52-12.42,3.34-24.95-.88-37.24-2.77-8.08-8.54-13.1-16.98-14.26-4.71-.64-9.58-.12-15.14-.12Z"/>
      <path class="cls-3" d="M514.29,778.02c.38,24.3-14.24,39.62-38.45,39.93-5.26.07-10.72-.26-15.78-1.59-15.16-3.98-23.11-14.47-25.62-29.72-3.37-20.5,6.87-39.06,25.34-44.76,10.77-3.32,21.7-3.1,32.34.59,14.1,4.9,21.89,17.68,22.17,35.54ZM497.14,782.2c-.82-10-2.17-19.51-7.43-27.96-8.18-13.14-25.82-12.63-32.58,1.15-2.5,5.09-4.01,10.95-4.66,16.61-1.36,11.75-.35,23.36,7.07,33.28,9.25,12.38,27.36,10.39,33.15-3.89,2.44-6.01,3.03-12.77,4.45-19.19Z"/>
      <path class="cls-3" d="M583.15,838.88c12.6,0,25.21-.06,37.81.05,2.8.02,5.63.41,8.37,1,15.68,3.42,20.35,15.14,16.57,30.07-2.36,9.33-9.76,13.11-18.62,13.9-6.09.54-12.26.1-19.46.1.35,7.82.33,15.24,1.27,22.54.21,1.65,3.78,2.85,5.77,4.3,1.07.78,2.1,1.63,3.14,2.45-1.15.57-2.3,1.63-3.46,1.64-10.3.13-20.6.08-30.9.08-.31-.4-.61-.81-.92-1.21,1-.95,1.85-2.42,3.02-2.76,3.71-1.06,5.7-3.16,5.7-7.09.01-17.8.09-35.6.04-53.39-.01-3.69-1.79-6.18-5.65-7.2-1.35-.35-2.37-1.94-3.54-2.96.29-.51.58-1.02.86-1.52ZM608.07,879.06c2.68,0,4.67.01,6.65,0,9.52-.06,14.21-4.15,15.18-13.5.29-2.8.3-5.68,0-8.48-1.15-10.29-8.38-15.41-18.77-13.15-1.22.27-2.9,2.34-2.93,3.61-.24,10.29-.13,20.58-.13,31.52Z"/>
      <path class="cls-3" d="M733.77,839.08h61.45c.25,5.12.56,10.19.67,15.25.02.73-.85,1.94-1.51,2.09-.7.16-2.12-.46-2.38-1.09-4.9-11.86-14.86-12.26-25.43-11.41-1.97.16-3.96.02-6.28.02v29.82c4.11,0,8.22.2,12.3-.06,3.85-.25,5.59-2.94,6.61-6.45.34-1.16,1.81-1.99,2.76-2.97.59,1.22,1.66,2.43,1.69,3.66.17,5.82.14,11.66-.03,17.48-.03,1.12-1.01,2.22-1.55,3.32-.95-.49-2.63-.85-2.74-1.49-1.72-9.49-9.01-8.11-15.57-8.18-.99-.01-1.98,0-3.39,0v30.68c6.56,0,13.21.55,19.71-.15,6.54-.7,9.91-6.08,13.21-11.22,1.05-1.63,2.94-2.72,4.45-4.05.59.37,1.18.73,1.77,1.1-1.47,6.48-2.94,12.96-4.45,19.59-19.39,0-38.19.03-57-.08-.98,0-1.95-1.16-2.92-1.78.73-.74,1.36-1.93,2.22-2.13,4.66-1.1,5.81-4.22,5.78-8.55-.1-16.48-.06-32.97-.05-49.46,0-4.47-.95-8.2-6.04-9.63-1.06-.3-1.68-2.13-3.27-4.31Z"/>
      <path class="cls-3" d="M718.74,838.87c.42,5.39.89,10.03,1.05,14.67.03,1.03-.86,2.35-1.72,3.01-.35.27-2.02-.69-2.67-1.45-1.18-1.38-2.04-3.02-3.04-4.56-3.06-4.73-7.27-6.99-13.03-6.66-4.95.28-9.94.06-15.42.06v29.88c4.1,0,8.2.16,12.29-.05,3.91-.2,5.6-2.96,6.74-6.37.4-1.2,1.64-2.12,2.5-3.16.62,1.34,1.75,2.66,1.79,4.02.17,5.82.07,11.66-.08,17.49-.03.99-.8,1.96-1.23,2.94-.95-.46-2.62-.78-2.75-1.41-1.91-9.66-9.41-8.15-16.12-8.22-.99,0-1.97.12-3.27.2v30.6c6.87,0,13.37.5,19.77-.13,6.94-.69,10.65-6.17,14.22-11.53.99-1.49,2.64-2.54,3.98-3.79.61.36,1.23.71,1.84,1.07-1.45,6.04-2.8,12.1-4.47,18.08-.2.72-2.09,1.37-3.21,1.38-17.83.09-35.65.09-53.48,0-1.09,0-2.17-.92-3.25-1.42.92-.91,1.68-2.3,2.78-2.66,3.83-1.26,5.05-3.98,5.05-7.65-.01-16.33.06-32.65-.09-48.98-.04-4.71-.52-9.47-6.54-10.9-.87-.21-1.41-1.86-2.1-2.84,1.24-.54,2.47-1.54,3.72-1.55,13.33-.12,26.66-.08,39.98-.09,5.47,0,10.93,0,16.75,0Z"/>
      <path class="cls-3" d="M460.71,914.99c-11.69,0-22.17.04-32.65-.07-.9,0-1.8-.98-2.69-1.51.82-.83,1.49-2.04,2.48-2.42,6.09-2.36,6.33-2.74,4.35-9.08q-3.42-10.95-14.55-10.97c-5.16-.01-10.32-.03-15.48-.03-.15,0-.3.12-.92.37-.85,2.83-1.81,5.96-2.71,9.1-1.97,6.92-1.63,7.45,4.98,10,1.23.47,2.15,1.73,3.21,2.62-1.31.66-2.61,1.85-3.94,1.89-6.81.19-13.62.09-21.53.09,1.11-1.78,1.69-2.95,2.48-3.94,2.91-3.68,7.05-6.87,8.64-11.03,6.32-16.58,11.91-33.44,17.56-50.27.5-1.5-.5-3.51-.81-5.29-.52-.13-1.05-.26-1.57-.38,1.58-1.74,2.94-4.65,4.78-4.99,3.99-.75,8.26-.46,12.34.02.89.1,1.59,2.7,2.19,4.22,7.37,18.5,14.67,37.03,22.09,55.5,2.02,5.04,3.64,10.47,9.7,12.54.72.25,1.03,1.74,2.05,3.63ZM426.72,885.91c-4.13-10.7-8.03-20.82-12.42-32.21-4.01,11.43-7.59,21.66-11.29,32.21h23.71Z"/>
      <path class="cls-3" d="M275.83,917.1c-6.01-1.65-12.1-3.06-18.02-5.01-4.37-1.44-6.7-4.55-5.82-9.57.49-2.77.32-5.66.75-8.44.13-.87,1.26-1.58,1.93-2.37.76.68,1.83,1.21,2.24,2.05,1.43,2.98,2.33,6.24,3.99,9.08,4.29,7.34,12.19,10.34,20.2,8.04,8.88-2.55,11.41-13.89,4.32-20.46-2.5-2.32-5.8-3.8-8.81-5.53-4.89-2.81-10.15-5.08-14.7-8.35-7.39-5.33-10.41-13-8.52-21.94,1.87-8.83,8.1-13.97,16.51-16.33,9.37-2.63,18.48-.79,27.3,2.67,1.09.43,2.3,1.97,2.44,3.12.46,3.62.54,7.31.52,10.97,0,.94-.91,1.88-1.4,2.82-1-.63-2.34-1.04-2.95-1.93-1.49-2.18-2.18-5.12-4.05-6.8-2.99-2.68-6.41-5.34-10.13-6.63-5.04-1.76-11.34,1.6-13.55,6.07-2.32,4.69-1.14,9.99,3.69,13.73,2.99,2.31,6.51,3.95,9.86,5.77,3.64,1.98,7.51,3.58,11.02,5.76,9.72,6.05,13.64,15.35,11.04,25.55-2.28,8.98-11.5,15.92-22.09,16.56-1.83.11-3.66.02-5.5.02l-.3,1.15Z"/>
      <path class="cls-3" d="M339.92,844.65c-11.02-2.99-18.03.9-22.1,10.69-.46,1.09-2.12,1.69-3.22,2.51-.53-1.22-1.53-2.44-1.51-3.65.06-4.95.43-9.91.7-15.09h67.75c.48,5.36,1.04,10.6,1.35,15.87.05.9-.93,2.63-1.46,2.64-1.08.02-2.2-.83-3.26-1.41-.23-.12-.27-.59-.39-.9-3.79-9.72-10.67-13.62-21.45-10.74-.06.99-.24,2.43-.24,3.86,0,16.83-.02,33.65.04,50.48.02,5.51-.5,11.46,7.4,12.36.47.05.95.87,1.22,1.43.19.39.04.95.04,1.87h-35.03c1.94-1.76,2.87-3.27,4.13-3.63,3.93-1.13,5.98-3.6,5.99-7.55.06-19.62.03-39.25.03-58.74Z"/>
      <path class="cls-3" d="M421.88,816.98c-16.02,0-31.64,0-47.26,0-3.5,0-7,.11-10.48-.07-.9-.05-1.75-1-2.62-1.54.63-.83,1.12-2.2,1.92-2.42,5.79-1.58,6.46-6.06,6.46-10.94.01-15.31,0-30.62-.03-45.94-.01-5.05-.65-9.74-6.81-11.18-.79-.18-1.29-1.57-1.92-2.4.89-.51,1.78-1.47,2.68-1.48,9.32-.11,18.64-.12,27.96-.01.94.01,1.87.95,2.8,1.46-.77.89-1.41,2.36-2.33,2.57-5.24,1.21-6.11,5.11-6.12,9.49-.03,17.31.09,34.62,0,51.93-.02,4.13,1.13,6.33,5.69,5.61,1.62-.26,3.35-.22,4.98,0,10.14,1.32,16.84-3.48,21.57-11.91.57-1.01.99-2.22,1.83-2.94.99-.86,2.35-1.3,3.54-1.93.38,1.16,1.23,2.37,1.08,3.46-.81,5.92-1.87,11.8-2.93,18.23Z"/>
      <path class="cls-5" d="M550.33,779.08v-32.22c6.24-2.47,14.03-.95,17.88,3.46,4.48,5.13,5.39,16.43,1.83,22.66-3.3,5.77-9.78,7.82-19.71,6.1Z"/>
      <path class="cls-1" d="M601.61,425.87c-6.4,2.77-12.44,3.02-18.61-1.04,6.52-6.74,16.83-7.99,22.28-15.87-11.15-1.58-20.83,3.34-31.14,5.56,5.21-9.93,22.32-19.09,33.12-17.88,10.68,1.21,14.44,10.7,7.43,19.82-2.3,2.99-2.77,5.43-2.17,8.98.47,2.8-.18,6-1.16,8.73-.63,1.77-2.74,3.02-4.19,4.5-1.67-1.71-3.9-3.16-4.85-5.21-.91-1.97-.49-4.56-.71-7.6Z"/>
      <path class="cls-1" d="M487.64,468.04c-6.82,1.18-11.69-2.37-12.55-8.37-.26-1.79-.62-3.9.05-5.43,2.64-6-1.12-7.76-5.59-9.38-2.46-.89-4.82-2.05-7.29-3.11,4.79-6.06,10.8-7.56,16.75-4.36,6.1,3.28,8.86,9.9,5.79,16.49-2.53,5.45-.02,9.47,2.83,14.16Z"/>
    </g>
  </g>
</svg>